<svg xmlns="http://www.w3.org/2000/svg" viewBox="0 0 28.13 39.46"><path d="M3.98 6.34a3.89 3.89 0 0 1-2.95-1.09A3.66 3.66 0 0 1 0 2.63a4.23 4.23 0 0 1 .12-.91A4.04 4.04 0 0 1 .43.8a9.83 9.83 0 0 0 1.85.24q1.22.06 2.86.06h5.54a58.23 58.23 0 0 0 5.93-.29Q19.44.52 21.6.26 23.76 0 24.38 0a2.77 2.77 0 0 1 2.57 1.32 10.35 10.35 0 0 1 1.18 3.53 21.63 21.63 0 0 0-2.47-.15h-5.19a26.13 26.13 0 0 0-3.14.2q-.67 1.4-1.49 3.3t-1.6 3.97q-.8 2.06-1.52 4.11-.72 2.05-1.25 3.68-1.05 3.18-1.85 5.87-.79 2.7-1.39 5.03-.6 2.34-1.03 4.46-.43 2.11-.77 4.14-3.21-.48-5.37-4.04.38-1.48.93-3.24.55-1.75 1.3-3.98.74-2.23 1.75-5.06 1-2.84 2.3-6.44l1.01-2.8L9.38 11q.5-1.45.92-2.8.4-1.34.7-2.44-2.02.24-3.82.4-1.8.18-3.2.18z" fill="#3ec6ff"/></svg>