<svg xmlns="http://www.w3.org/2000/svg" viewBox="0 0 143.76 45.79"><path fill="#3ec6ff" d="M3.98 10.92a3.89 3.89 0 0 1-2.95-1.08A3.66 3.66 0 0 1 0 7.2a4.23 4.23 0 0 1 .12-.91 4.04 4.04 0 0 1 .31-.91 9.83 9.83 0 0 0 1.85.23q1.22.07 2.86.07h5.54a58.23 58.23 0 0 0 5.93-.3q2.83-.28 4.99-.54t2.78-.27a2.77 2.77 0 0 1 2.57 1.32 10.35 10.35 0 0 1 1.18 3.53 21.63 21.63 0 0 0-2.47-.14h-5.19a26.13 26.13 0 0 0-3.14.2q-.67 1.39-1.49 3.29-.82 1.9-1.6 3.97-.8 2.07-1.52 4.11-.72 2.05-1.25 3.69-1.05 3.17-1.85 5.87-.79 2.7-1.39 5.03-.6 2.33-1.03 4.45-.43 2.12-.77 4.14-3.21-.48-5.37-4.03.38-1.49.93-3.24.55-1.75 1.3-3.99.74-2.23 1.75-5.06 1-2.83 2.3-6.43l1.01-2.81q.53-1.46 1.03-2.9t.92-2.79q.4-1.34.7-2.45-2.02.24-3.82.41-1.8.17-3.2.17zM33.65 20.62a4.57 4.57 0 0 1 1.13.16 6.03 6.03 0 0 1 1.17.44 5.05 5.05 0 0 1 .89.55q.36.29.36.53-.96 2.01-1.78 4.05-.81 2.04-1.39 3.91a33.14 33.14 0 0 0-.89 3.5 15.35 15.35 0 0 0-.3 2.84 7.35 7.35 0 0 0 .28 2.23 2.15 2.15 0 0 0 .96 1.27 4.97 4.97 0 0 1-1.49.63 6.49 6.49 0 0 1-1.63.24q-2.6 0-2.6-3.55a22.54 22.54 0 0 1 1.83-7.5 29.09 29.09 0 0 1-2.2 4.14 29.2 29.2 0 0 1-2.55 3.42 15.01 15.01 0 0 1-2.62 2.41 6.16 6.16 0 0 1-2.42 1.13 3.35 3.35 0 0 1-2.88-1.62 7.14 7.14 0 0 1-1.1-4.12 15.81 15.81 0 0 1 1.15-5.69 25.54 25.54 0 0 1 2.95-5.54 21 21 0 0 1 3.91-4.27 6.57 6.57 0 0 1 4.08-1.7 3.78 3.78 0 0 1 1.08.57 8.42 8.42 0 0 1 1.15 1 7.72 7.72 0 0 1 .94 1.18 2.54 2.54 0 0 1 .43 1.02 8.67 8.67 0 0 0-3.96 1.87 19.46 19.46 0 0 0-3.7 3.8 22.35 22.35 0 0 0-2.7 4.77 12.4 12.4 0 0 0-1.06 4.75 1.07 1.07 0 0 0 .67 1.14 6.65 6.65 0 0 0 3.22-2.37 45.87 45.87 0 0 0 4.41-6.46l1.08-1.92q.6-1.05 1.23-2.2.62-1.16 1.22-2.33.6-1.18 1.13-2.28zM39.74 35.42a18.56 18.56 0 0 1 .9-4.8q.88-3.07 2.32-6.72 1.44-3.64 3.26-7.53 1.83-3.9 3.68-7.25a65.33 65.33 0 0 1 3.55-5.8A14.21 14.21 0 0 1 56.35 0a3.1 3.1 0 0 1 1.47.58 7.88 7.88 0 0 1 1.46 1.27A8.64 8.64 0 0 1 60.4 3.4a3.1 3.1 0 0 1 .45 1.49 30.44 30.44 0 0 0-4.39 4.44 55.55 55.55 0 0 0-4.25 5.95 66.7 66.7 0 0 0-3.72 6.86 63.12 63.12 0 0 0-2.85 7.13 43.21 43.21 0 0 1 3.21-4.81 29.73 29.73 0 0 1 3.36-3.7 15.75 15.75 0 0 1 3.3-2.38 6.6 6.6 0 0 1 3.04-.85 4.8 4.8 0 0 1 2.11 4.08 8.27 8.27 0 0 1-.62 3.09 11.72 11.72 0 0 1-1.66 2.87 11.18 11.18 0 0 1-2.35 2.25 7.19 7.19 0 0 1-2.76 1.23 28 28 0 0 0 1.22 3.4 24.04 24.04 0 0 0 1.78 3.36 19.54 19.54 0 0 0 2.35 3.03 13 13 0 0 0 3 2.35 3.81 3.81 0 0 1-.72.96 4.9 4.9 0 0 1-1.15.84 7.01 7.01 0 0 1-1.46.58 5.94 5.94 0 0 1-1.56.21 3.23 3.23 0 0 1-2.43-1.3 12.23 12.23 0 0 1-2.04-3.74 45.27 45.27 0 0 1-1.39-4.7q-.67-2.74-1.2-5.71a17.78 17.78 0 0 0 1.68-1.27q1-.84 2.11-1.94 4.22-4.07 4.23-7.04 0-.39-.53-.39a4.27 4.27 0 0 0-2.26.87 16.82 16.82 0 0 0-2.76 2.4 36.4 36.4 0 0 0-2.97 3.6 50 50 0 0 0-2.9 4.47 14.22 14.22 0 0 0-1.06 2.22 26.72 26.72 0 0 0-.84 2.57 22.4 22.4 0 0 0-.56 2.61 16.42 16.42 0 0 0-.19 2.4 3.56 3.56 0 0 0 .15 1.11q-1.5-.14-1.83-.77-.38-.57-.65-.93a3.4 3.4 0 0 0-.55-.6 2.7 2.7 0 0 1-.72-1.44 11.27 11.27 0 0 1-.29-2.79zM80.45 20.14a16.5 16.5 0 0 1-1.06 5.1A11.17 11.17 0 0 1 76.92 29a17.91 17.91 0 0 1-3.91 2.9 42.64 42.64 0 0 1-5.38 2.5l-.02.6c-.02.21-.03.43-.03.65a9.09 9.09 0 0 0 .1 1.3 5.06 5.06 0 0 0 .34 1.24 2.39 2.39 0 0 0 .67.94 1.67 1.67 0 0 0 1.1.36 6.02 6.02 0 0 0 2.55-.58 13.4 13.4 0 0 0 2.37-1.41 19.16 19.16 0 0 0 2.11-1.83q.99-.98 1.76-1.8a9.87 9.87 0 0 1 .81.82 23.12 23.12 0 0 1-4.73 4.78 13.45 13.45 0 0 1-4.87 2.42 7.91 7.91 0 0 1-5.16-2.42 7.07 7.07 0 0 1-1.85-4.92 15.3 15.3 0 0 1 .56-4.01 19.67 19.67 0 0 1 1.53-3.94 22.69 22.69 0 0 1 2.3-3.57 19 19 0 0 1 2.84-2.93 13.69 13.69 0 0 1 3.12-1.97 7.76 7.76 0 0 1 3.19-.72 6.45 6.45 0 0 1 4.13 2.74zm-3.32 1.58a7.13 7.13 0 0 0-2.68 1.06 11.24 11.24 0 0 0-2.62 2.3 18.29 18.29 0 0 0-2.23 3.36 19.36 19.36 0 0 0-1.58 4.13 21.4 21.4 0 0 0 6.38-4.73 9.82 9.82 0 0 0 2.73-6.12zM102.67 43.56a.42.42 0 0 1-.2.05h-.37a6.68 6.68 0 0 1-1.56-.22 15.54 15.54 0 0 1-1.73-.53 7.58 7.58 0 0 1-1.44-.7 2.1 2.1 0 0 1-.75-.66c-.03-.45-.04-.92-.04-1.4v-1.39a83.84 83.84 0 0 1 .79-11.23 102.37 102.37 0 0 1 2.61-12.67q.2-.67.41-1.7l.46-2.24a18.4 18.4 0 0 0-2.74 2.9q-1.58 2-3.33 4.7-1.76 2.72-3.5 5.96-1.76 3.24-3.2 6.58a69.58 69.58 0 0 0-2.47 6.6 28.13 28.13 0 0 0-1.28 6.05 10.62 10.62 0 0 1-3.19-1.35 2 2 0 0 1-.89-1.63 8.42 8.42 0 0 1 .53-2.45q.53-1.58 1.5-3.74.95-2.16 2.34-4.83 1.4-2.66 3.08-5.73 1.91-3.5 3.76-6.58 1.85-3.07 3.63-5.57a42.1 42.1 0 0 1 3.48-4.32 14.76 14.76 0 0 1 3.38-2.78 6.72 6.72 0 0 1 1.8.34 18.55 18.55 0 0 1 2.2.81 17.82 17.82 0 0 1 1.93.99q.84.5.93.84a34.24 34.24 0 0 0-1.58 4.03q-.91 2.69-1.85 6.1-.93 3.4-1.77 7.22-.84 3.81-1.32 7.32 1.1-2.64 2.57-5.5 1.46-2.85 3.1-5.66 1.62-2.81 3.33-5.45 1.7-2.64 3.33-4.82 1.63-2.19 3.05-3.82a14.63 14.63 0 0 1 2.52-2.4 6.72 6.72 0 0 1 1.8.34 18.61 18.61 0 0 1 2.2.81 17.91 17.91 0 0 1 1.93.99q.84.5.93.84a32.1 32.1 0 0 0-2.68 6.67 82.29 82.29 0 0 0-1.95 8.25q-.79 4.32-1.2 8.57-.4 4.25-.4 7.61v2.3q0 1.2.1 2.5a9.29 9.29 0 0 1-1.62-.17 13.84 13.84 0 0 1-1.82-.45 11.64 11.64 0 0 1-1.6-.65 2.54 2.54 0 0 1-1.02-.8c-.03-.44-.05-.9-.05-1.39v-1.39a83.84 83.84 0 0 1 .8-11.23 102.2 102.2 0 0 1 2.61-12.67q.2-.67.43-1.83l.48-2.4a11.17 11.17 0 0 0-3.04 2.57 36.8 36.8 0 0 0-3.46 4.61q-1.75 2.71-3.46 6.02-1.7 3.32-3.07 6.75a65.84 65.84 0 0 0-2.3 6.81 31.47 31.47 0 0 0-1.13 6.22zM143.76 20.14a16.48 16.48 0 0 1-1.06 5.1 11.16 11.16 0 0 1-2.47 3.75 17.84 17.84 0 0 1-3.91 2.9 42.51 42.51 0 0 1-5.38 2.5c0 .2 0 .4-.02.6q-.03.31-.03.65a9.09 9.09 0 0 0 .1 1.3 5.06 5.06 0 0 0 .34 1.24 2.38 2.38 0 0 0 .67.94 1.67 1.67 0 0 0 1.1.36 6.01 6.01 0 0 0 2.55-.58 13.42 13.42 0 0 0 2.37-1.41 19.24 19.24 0 0 0 2.11-1.83q.99-.98 1.76-1.8a9.73 9.73 0 0 1 .81.82 23.08 23.08 0 0 1-4.73 4.78 13.45 13.45 0 0 1-4.87 2.42 7.9 7.9 0 0 1-5.16-2.42 7.07 7.07 0 0 1-1.85-4.92 15.35 15.35 0 0 1 .56-4.01 19.7 19.7 0 0 1 1.53-3.94 22.65 22.65 0 0 1 2.3-3.57 19.06 19.06 0 0 1 2.84-2.93 13.7 13.7 0 0 1 3.12-1.97 7.75 7.75 0 0 1 3.2-.72 6.45 6.45 0 0 1 4.12 2.74zm-3.31 1.58a7.12 7.12 0 0 0-2.7 1.06 11.24 11.24 0 0 0-2.6 2.3 18.33 18.33 0 0 0-2.24 3.36 19.33 19.33 0 0 0-1.58 4.13 21.4 21.4 0 0 0 6.38-4.73 9.84 9.84 0 0 0 2.74-6.12z"/></svg>