<svg xmlns="http://www.w3.org/2000/svg" viewBox="0 0 125.625 125.53"><path fill="#fff" d="M700.484,7053.24a62.77,62.77,0,1,0,62.821,62.77A62.858,62.858,0,0,0,700.484,7053.24Zm0,120.26a57.485,57.485,0,1,1,57.535-57.49A57.568,57.568,0,0,1,700.484,7173.5Zm23.631-62.92-28.576-22.29a6.769,6.769,0,0,0-4.191-1.45,6.863,6.863,0,0,0-6.863,6.85l0,44.59a6.859,6.859,0,0,0,6.86,6.84,6.774,6.774,0,0,0,4.194-1.45l28.577-22.3A6.848,6.848,0,0,0,724.115,7110.58Zm-3.25,6.62-28.577,22.31a1.529,1.529,0,0,1-2.514-1.23l0-44.59a1.565,1.565,0,0,1,1.577-1.57,1.475,1.475,0,0,1,.94.34l28.574,22.29a1.541,1.541,0,0,1,.6,1.23A1.517,1.517,0,0,1,720.865,7117.2Z" transform="translate(-637.688 -7053.25)"/></svg>
